# xmcd
#
# Track frame offsets:
#	150
#	24450
#	35283
#	55678
#	72173
#	100532
#	115508
#	143884
#	154274
#	165996
#	184343
#	204819
#	232080
#	247386
#	261787
#	289108
#	305276
#	319376
#	334241
#
# Disc length: 4647
#
# Revision: 2
# Processed by: cddbd v1.5.1PL0 Copyright (c) Steve Scherf et al.
# Submitted via: audiograbber 1.83.01
# Normalized: r1:TDELIM( - )
#
DISCID=0a122513
DTITLE=Various Artist - Blues Here and There
DYEAR=2000
DGENRE=Blues
TTITLE0=Jimmy Witherspoon - Killing Time
TTITLE1=John Lee Hooker with The Groundhogs - No One Pleases Me But You
TTITLE2=Charlie Musselwhite - Key To The Highway (Live)
TTITLE3=Paul Jones - Work Sing (Live)
TTITLE4=Chris Farlowe - Lonesome Road (Live)
TTITLE5=Stan Webb's Chicken Sack - Evil
TTITLE6=Duster Bennet With Peter Green - I'm Thinking About A Woman
TTITLE7=Alexis Korner Blues Inc. - See See Rider
TTITLE8=Big Joe Duskin - Don't Mess With The Boogie Man
TTITLE9=Lowell Fulson - Monday Morning Blues
TTITLE10=Jimmy Witherspoon - Help Me Operator
TTITLE11=Norman Beaker and The Indigo Allstars - Modern Days, Lonely Nights
TTITLE12=The John Dummer Blues Band - Down Home Girl
TTITLE13=Mick Abraham's Bloodwyn Pig - It's Only Love (Live)
TTITLE14=Paul Lamb and The King Snakes - Every Day I have The Blues (Live)
TTITLE15=Jerry Portnoy and The Streamliners - Poison Kisses
TTITLE16=John Mayall - Blue Fox (Live)
TTITLE17=The Nightporters - Stay Out All Night Long
TTITLE18=Nine Below Zero - Checkin'Up On My Baby
EXTD=
EXTT0=
EXTT1=
EXTT2=
EXTT3=
EXTT4=
EXTT5=
EXTT6=
EXTT7=
EXTT8=
EXTT9=
EXTT10=
EXTT11=
EXTT12=
EXTT13=
EXTT14=
EXTT15=
EXTT16=
EXTT17=
EXTT18=
PLAYORDER=
